<?xml version="1.0" standalone="no"?>
<!DOCTYPE svg PUBLIC "-//W3C//DTD SVG 20010904//EN"
 "http://www.w3.org/TR/2001/REC-SVG-20010904/DTD/svg10.dtd">
<svg version="1.0" xmlns="http://www.w3.org/2000/svg"
 width="521.000000pt" height="458.000000pt" viewBox="0 0 521.000000 458.000000"
 preserveAspectRatio="xMidYMid meet">

<g transform="translate(0.000000,458.000000) scale(0.100000,-0.100000)"
fill="#FF204E" stroke="none">
<path d="M1449 4511 l-29 -29 0 -606 0 -606 -656 0 c-673 0 -681 0 -711 -39
-10 -12 -12 -366 -13 -1577 0 -1500 1 -1562 18 -1577 17 -16 209 -17 2550 -17
l2532 0 15 23 c13 21 15 196 13 1580 l-3 1556 -23 23 -23 23 -669 3 -670 2 0
601 0 601 -34 34 -34 34 -1117 0 -1117 0 -29 -29z m2201 -2211 l0 -2110 -1050
0 -1050 0 0 2110 0 2110 1050 0 1050 0 0 -2110z m-2230 -635 l0 -1475 -625 0
-625 0 0 1475 0 1475 625 0 625 0 0 -1475z m3620 0 l0 -1475 -630 0 -630 0 0
1475 0 1475 630 0 630 0 0 -1475z"/>
<path d="M1772 4178 c-17 -17 -17 -1289 0 -1306 9 -9 207 -12 830 -12 798 0
818 0 828 19 6 13 10 234 10 649 0 597 -1 630 -18 645 -17 16 -89 17 -828 17
-617 0 -813 -3 -822 -12z"/>
<path d="M1800 2280 l0 -190 190 0 190 0 0 190 0 190 -190 0 -190 0 0 -190z"/>
<path d="M2410 2280 l0 -190 190 0 190 0 0 190 0 190 -190 0 -190 0 0 -190z"/>
<path d="M3017 2463 c-4 -3 -7 -89 -7 -190 l0 -183 195 0 195 0 0 190 0 190
-188 0 c-104 0 -192 -3 -195 -7z"/>
<path d="M1800 1590 l0 -190 190 0 190 0 0 190 0 190 -190 0 -190 0 0 -190z"/>
<path d="M2410 1590 l0 -190 190 0 190 0 0 190 0 190 -190 0 -190 0 0 -190z"/>
<path d="M3012 1593 l3 -188 193 -3 192 -2 0 190 0 190 -195 0 -195 0 2 -187z"/>
<path d="M1800 970 l0 -190 190 0 190 0 0 190 0 190 -190 0 -190 0 0 -190z"/>
<path d="M2410 970 l0 -190 190 0 190 0 0 190 0 190 -190 0 -190 0 0 -190z"/>
<path d="M3012 973 l3 -188 193 -3 192 -2 0 190 0 190 -195 0 -195 0 2 -187z"/>
<path d="M430 2330 l0 -110 345 0 345 0 0 110 0 110 -345 0 -345 0 0 -110z"/>
<path d="M432 1903 l3 -108 343 -3 342 -2 0 110 0 110 -345 0 -346 0 3 -107z"/>
<path d="M430 1480 l0 -110 345 0 345 0 0 110 0 110 -345 0 -345 0 0 -110z"/>
<path d="M4080 2330 l0 -110 345 0 345 0 0 110 0 110 -345 0 -345 0 0 -110z"/>
<path d="M4080 1900 l0 -110 343 2 342 3 3 108 3 107 -346 0 -345 0 0 -110z"/>
<path d="M4080 1480 l0 -110 345 0 345 0 0 110 0 110 -345 0 -345 0 0 -110z"/>
</g>
</svg>
